<!-- Generated by IcoMoon.io -->
<svg version="1.1" xmlns="http://www.w3.org/2000/svg" width="1024" height="1024" viewBox="0 0 1024 1024">
<title></title>
<g id="icomoon-ignore">
</g>
<path d="M0 12.8v998.4h1024v-998.4zM42.667 55.467h938.667v913.067h-938.667zM355.2 578.133l-33.792 127.915c-0.725 3.541-2.133 4.352-6.315 4.352h-62.635c-4.267 0-4.907-1.408-4.267-6.315l121.173-424.32c2.133-7.68 3.499-14.421 4.181-35.541 0-2.816 1.408-4.267 3.541-4.267h89.429c2.816 0 4.267 0.768 4.949 4.267l135.893 460.544c0.725 3.541 0 5.632-3.541 5.632h-70.4c-3.541 0-5.632-0.853-6.315-3.669l-35.2-128.64zM474.155 508.8c-11.947-47.189-40.107-150.528-50.688-200.533h-0.725c-9.131 49.92-31.659 134.4-49.28 200.533zM666.155 271.659c0-27.435 18.987-43.648 43.648-43.648 26.027 0 43.648 17.579 43.648 43.648 0 28.16-18.347 43.648-44.373 43.648-25.6 0-43.093-15.488-42.923-43.648zM670.933 368.683c0-3.413 1.408-4.693 4.949-4.693h66.987c3.755 0 5.12 1.408 5.12 4.949v336.853c0 3.541-0.683 4.949-4.907 4.949h-66.133c-4.267 0-5.675-2.133-5.675-5.547z"></path>
</svg>
