<!-- Generated by IcoMoon.io -->
<svg version="1.1" xmlns="http://www.w3.org/2000/svg" width="768" height="768" viewBox="0 0 768 768">
<title></title>
<g id="icomoon-ignore">
</g>
<path fill="#000" d="M416 400c0-22.112 8.928-42.048 23.424-56.576s34.464-23.424 56.576-23.424 42.048 8.928 56.576 23.424 23.424 34.464 23.424 56.576-8.928 42.048-23.424 56.576-34.464 23.424-56.576 23.424-42.048-8.928-56.576-23.424-23.424-34.464-23.424-56.576zM272 256c-22.112 0-42.048-8.928-56.576-23.424s-23.424-34.464-23.424-56.576 8.928-42.048 23.424-56.576 34.464-23.424 56.576-23.424h80v160zM416 256v-160h80c22.112 0 42.048 8.928 56.576 23.424s23.424 34.464 23.424 56.576-8.928 42.048-23.424 56.576-34.464 23.424-56.576 23.424zM352 544v80c0 22.112-8.928 42.048-23.424 56.576s-34.464 23.424-56.576 23.424-42.048-8.928-56.576-23.424-23.424-34.464-23.424-56.576 8.928-42.048 23.424-56.576 34.464-23.424 56.576-23.424zM128 400c0 39.744 16.16 75.808 42.176 101.824 3.584 3.584 7.36 6.976 11.296 10.176-3.936 3.2-7.712 6.592-11.296 10.176-26.016 26.016-42.176 62.080-42.176 101.824s16.16 75.808 42.176 101.824 62.080 42.176 101.824 42.176 75.808-16.16 101.824-42.176 42.176-62.080 42.176-101.824v-104.256c22.88 15.296 50.4 24.256 80 24.256 39.744 0 75.808-16.16 101.824-42.176s42.176-62.080 42.176-101.824-16.16-75.808-42.176-101.824c-3.584-3.584-7.36-6.976-11.296-10.176 3.936-3.2 7.712-6.592 11.296-10.176 26.016-26.016 42.176-62.080 42.176-101.824s-16.16-75.808-42.176-101.824-62.080-42.176-101.824-42.176h-224c-39.744 0-75.808 16.16-101.824 42.176s-42.176 62.080-42.176 101.824 16.16 75.808 42.176 101.824c3.584 3.584 7.36 6.976 11.296 10.176-3.936 3.2-7.712 6.592-11.296 10.176-26.016 26.016-42.176 62.080-42.176 101.824zM192 400c0-22.112 8.928-42.048 23.424-56.576s34.464-23.424 56.576-23.424h80v160h-80c-22.112 0-42.048-8.928-56.576-23.424s-23.424-34.464-23.424-56.576z"></path>
</svg>
